<svg xmlns="http://www.w3.org/2000/svg" xmlns:xlink="http://www.w3.org/1999/xlink" id="Layer_1"
    data-name="Layer 1" viewBox="139.98 140.03 423.87 279.97">
    <defs>
        <style>.cls-1{fill:url(#linear-gradient);}</style>
        <linearGradient id="linear-gradient" x1="119.22" y1="470.75" x2="583.83" y2="10.51"
            gradientTransform="matrix(1, 0, 0, -1, 0, 561)" gradientUnits="userSpaceOnUse">
            <stop offset="0.17" stop-color="#ff5e00"></stop>
            <stop offset="0.34" stop-color="#e80556"></stop>
            <stop offset="0.69" stop-color="#4601b5"></stop>
        </linearGradient>
    </defs>
    <title>purpledreams-symbol-gradient</title>
    <path class="cls-1"
        d="M560.82,322.83a76,76,0,0,0-73-54.82H487a3.39,3.39,0,0,1-2.49-1,3.63,3.63,0,0,1-.72-1.17,3.35,3.35,0,0,1-.19-1.37,116,116,0,0,0-187.32-99.68c-1,.8-2,1.63-3,2.46a2,2,0,0,0-.59.86,2.09,2.09,0,0,0-.09,1.05,2.12,2.12,0,0,0,.46.94,2,2,0,0,0,.87.58,129.15,129.15,0,0,1,17.82,7.44q5,2.53,9.8,5.51a3.52,3.52,0,0,0,3.68,0l1.1-.64c1.53-.87,3.09-1.69,4.68-2.48a84.2,84.2,0,0,1,116.4,48.35c4,11.69,4.86,23.45,5,34.16a133.17,133.17,0,0,1-1.87,25.22c-1.5,8.11,3.28,13.51,11.31,12.39,10.06-1.39,17.91-2.48,30.89-.32,11,1.84,21.48,6.81,28.7,15.34A44,44,0,0,1,487.85,388H252.22a80,80,0,0,1-3.17-159.94A70.83,70.83,0,0,1,287.94,238c16.49,9.79,25.9,27.44,26.09,46.69.09,10.57-4,20.91-9,26.31-8.32,9-17.43,13.44-36.84,12.38-6.52-.36-13.44-2.26-18.31-7.11-3.62-3.6-6-9-4.28-16.56,1.51-6.82,9.06-11.21,15.54-12.13a25.29,25.29,0,0,1,7.67.14c2.08.35,4.62.63,6.37-.05,2.35-.9,3.79-2.95,3.67-6.56-.27-8.22-9-16.45-27.24-16.32-20.48.21-39.94,14.21-39.94,40.84,0,17.6,7.14,27.59,14.45,34.12,10.91,9.73,25.92,14.88,40.34,15.61,34.59,1.74,51.17-10.25,64.42-25.9,7.16-8.48,11.72-19,14-29.85a79.06,79.06,0,0,0-2.24-39.25,88.62,88.62,0,0,0-20.71-34.75C311.78,215,300.75,207.21,287,202.1a101.47,101.47,0,0,0-40.71-5.94,112,112,0,0,0-19,221.1,113.63,113.63,0,0,0,25,2.74H485.5c2.8,0,5.58,0,8.37-.24a75.54,75.54,0,0,0,32-10A76.79,76.79,0,0,0,550,387.66a75.87,75.87,0,0,0,10.85-64.83Z"></path>
</svg>